<svg width="24" height="24" viewBox="0 0 24 24" fill="none" xmlns="http://www.w3.org/2000/svg">
<path d="M4.14705 4.30379L4.21967 4.21967C4.48594 3.9534 4.9026 3.9292 5.19621 4.14705L5.28033 4.21967L11.75 10.689L18.2197 4.21967C18.5126 3.92678 18.9874 3.92678 19.2803 4.21967C19.5732 4.51256 19.5732 4.98744 19.2803 5.28033L12.811 11.75L19.2803 18.2197C19.5466 18.4859 19.5708 18.9026 19.3529 19.1962L19.2803 19.2803C19.0141 19.5466 18.5974 19.5708 18.3038 19.3529L18.2197 19.2803L11.75 12.811L5.28033 19.2803C4.98744 19.5732 4.51256 19.5732 4.21967 19.2803C3.92678 18.9874 3.92678 18.5126 4.21967 18.2197L10.689 11.75L4.21967 5.28033C3.9534 5.01406 3.9292 4.5974 4.14705 4.30379L4.21967 4.21967L4.14705 4.30379Z" fill="#3C3A37"/>
</svg>
