<svg width="16" height="16" viewBox="0 0 16 16" fill="none" xmlns="http://www.w3.org/2000/svg">
<path d="M3.09803 3.20253L3.14645 3.14645C3.32396 2.96893 3.60173 2.9528 3.79747 3.09803L3.85355 3.14645L8.16667 7.45933L12.4798 3.14645C12.6751 2.95119 12.9916 2.95119 13.1869 3.14645C13.3821 3.34171 13.3821 3.65829 13.1869 3.85355L8.874 8.16667L13.1869 12.4798C13.3644 12.6573 13.3805 12.9351 13.2353 13.1308L13.1869 13.1869C13.0094 13.3644 12.7316 13.3805 12.5359 13.2353L12.4798 13.1869L8.16667 8.874L3.85355 13.1869C3.65829 13.3821 3.34171 13.3821 3.14645 13.1869C2.95119 12.9916 2.95119 12.6751 3.14645 12.4798L7.45933 8.16667L3.14645 3.85355C2.96893 3.67604 2.9528 3.39827 3.09803 3.20253L3.14645 3.14645L3.09803 3.20253Z" fill="#00A09B"/>
</svg>
