<svg width="11" height="11" viewBox="0 0 11 11" fill="none" xmlns="http://www.w3.org/2000/svg">
<path d="M0.0980336 0.202527L0.146447 0.146447C0.32396 -0.0310665 0.601734 -0.0471998 0.797474 0.0980336L0.853554 0.146447L5.16667 4.45933L9.4798 0.146447C9.67507 -0.0488132 9.9916 -0.0488132 10.1869 0.146447C10.3821 0.341707 10.3821 0.658294 10.1869 0.853554L5.874 5.16667L10.1869 9.4798C10.3644 9.65727 10.3805 9.93507 10.2353 10.1308L10.1869 10.1869C10.0094 10.3644 9.7316 10.3805 9.53587 10.2353L9.4798 10.1869L5.16667 5.874L0.853554 10.1869C0.658294 10.3821 0.341707 10.3821 0.146447 10.1869C-0.0488132 9.9916 -0.0488132 9.67507 0.146447 9.4798L4.45933 5.16667L0.146447 0.853554C-0.0310665 0.67604 -0.0471998 0.398267 0.0980336 0.202527L0.146447 0.146447L0.0980336 0.202527Z" fill="#E64632"/>
</svg>
