<svg width="20" height="20" viewBox="0 0 20 20" fill="none" xmlns="http://www.w3.org/2000/svg">
<path d="M3.51834 16.4814C3.9049 16.8685 4.36415 17.1755 4.86969 17.3845C5.37523 17.5936 5.9171 17.7007 6.46418 17.6998C7.01137 17.7007 7.55336 17.5936 8.05903 17.3845C8.5647 17.1754 9.0241 16.8685 9.41084 16.4814L11.7675 14.1239L10.5892 12.9456L8.23251 15.3031C7.7629 15.7706 7.12723 16.0331 6.46459 16.0331C5.80195 16.0331 5.16628 15.7706 4.69668 15.3031C4.22876 14.8337 3.96601 14.198 3.96601 13.5352C3.96601 12.8724 4.22876 12.2367 4.69668 11.7673L7.05418 9.4106L5.87584 8.23226L3.51834 10.5889C2.73818 11.371 2.30005 12.4305 2.30005 13.5352C2.30005 14.6398 2.73818 15.6994 3.51834 16.4814ZM16.4817 9.4106C17.2614 8.62834 17.6993 7.56886 17.6993 6.46435C17.6993 5.35983 17.2614 4.30036 16.4817 3.5181C15.6996 2.73794 14.6401 2.2998 13.5354 2.2998C12.4308 2.2998 11.3712 2.73794 10.5892 3.5181L8.23251 5.8756L9.41084 7.05393L11.7675 4.69643C12.2371 4.22892 12.8728 3.96646 13.5354 3.96646C14.1981 3.96646 14.8337 4.22892 15.3033 4.69643C15.7713 5.16582 16.034 5.80157 16.034 6.46435C16.034 7.12713 15.7713 7.76287 15.3033 8.23226L12.9458 10.5889L14.1242 11.7673L16.4817 9.4106Z" fill="#A5AAB2"/>
<path d="M7.05331 14.125L5.87415 12.9467L12.9466 5.875L14.125 7.05417L7.05331 14.125Z" fill="#A5AAB2"/>
</svg>
