<svg width="180" height="80" viewBox="0 0 180 80" fill="none" xmlns="http://www.w3.org/2000/svg">
<rect width="180" height="80" fill="#F9F7F2"/>
<path d="M88.59 49.24V40.58H91.07V38.04H88.59V30.86H85.79V49.24H88.59ZM71.81 48.46C74.29 47.28 76.89 44.82 77.91 41.9C78.91 44.82 81.51 47.28 84.01 48.46V45.28C81.89 43.92 79.31 41.28 79.31 36.1V31.34H76.53V36.1C76.53 41.28 73.93 43.92 71.81 45.28V48.46ZM108.51 41.52V37.14H111.07V34.72H108.51V30.86H105.71V41.52H108.51ZM92.09 41.12C97.81 41 102.69 39 102.69 32.78V31.24H92.19V33.52H99.99C99.99 36.92 97.09 38.7 92.09 38.82V41.12ZM108.51 49.44V42.28H92.83V44.6H105.65V49.44H108.51ZM128.59 49.24V40.58H131.07V38.04H128.59V30.86H125.79V49.24H128.59ZM111.81 48.46C114.29 47.28 116.89 44.82 117.91 41.9C118.91 44.82 121.51 47.28 124.01 48.46V45.28C121.89 43.92 119.31 41.28 119.31 36.1V31.34H116.53V36.1C116.53 41.28 113.93 43.92 111.81 45.28V48.46ZM148.51 41.52V37.14H151.07V34.72H148.51V30.86H145.71V41.52H148.51ZM132.09 41.12C137.81 41 142.69 39 142.69 32.78V31.24H132.19V33.52H139.99C139.99 36.92 137.09 38.7 132.09 38.82V41.12ZM148.51 49.44V42.28H132.83V44.6H145.65V49.44H148.51Z" fill="#3C3A37"/>
<path d="M42.1908 39.4922L57.3295 24.3535C57.5248 24.1583 57.8414 24.1583 58.0366 24.3535L59.4508 25.7678C59.6461 25.963 59.6461 26.2796 59.4508 26.4749L44.3121 41.6135C44.2697 41.6559 44.2201 41.6904 44.1655 41.7152L41.5728 42.8937C41.1522 43.0849 40.7195 42.6522 40.9107 42.2316L42.0892 39.6389C42.114 39.5843 42.1484 39.5346 42.1908 39.4922Z" fill="#3C3A37"/>
<path fill-rule="evenodd" clip-rule="evenodd" d="M53 34.7627V46.6991C53 46.898 52.921 47.0887 52.7803 47.2294L45.9667 54.043C45.826 54.1837 45.6353 54.2627 45.4364 54.2627H30.25C29.8358 54.2627 29.5 53.9269 29.5 53.5127V31.5127C29.5 31.0985 29.8358 30.7627 30.25 30.7627H49L49.75 30.0127L50.5 29.2627H30.25C29.0074 29.2627 28 30.2701 28 31.5127V53.5127C28 54.7553 29.0074 55.7627 30.25 55.7627H45.4364C46.0331 55.7627 46.6054 55.5256 47.0274 55.1037L53.841 48.2901C54.2629 47.8681 54.5 47.2958 54.5 46.6991V33.2627L53.75 34.0127L53 34.7627Z" fill="#3C3A37"/>
<path d="M45.75 55.0127V48.5127C45.75 47.6843 46.4216 47.0127 47.25 47.0127H53.75" stroke="#3C3A37" stroke-width="1.5"/>
</svg>
