<svg width="268" height="142" viewBox="0 0 268 142" fill="none" xmlns="http://www.w3.org/2000/svg">
<path d="M0 104C0 100.686 2.68629 98 6 98H262C265.314 98 268 100.686 268 104V142H0V104Z" fill="#6B6862"/>
<rect x="165" y="118" width="4" height="62" rx="2" transform="rotate(90 165 118)" fill="#EFEFEF"/>
<rect x="28.1943" y="19.9658" width="32" height="10" rx="2" transform="rotate(55.0283 28.1943 19.9658)" fill="#2DA5D7"/>
<rect x="119.184" y="15.9873" width="32" height="10" rx="2" transform="rotate(154.444 119.184 15.9873)" fill="#00A09B"/>
<rect x="136" y="71.5957" width="32" height="10" rx="2" transform="rotate(-81.2755 136 71.5957)" fill="#E64632"/>
<rect x="198.366" width="32" height="10" rx="2" transform="rotate(67.8707 198.366 0)" fill="#F99A42"/>
<rect x="250.858" y="53.1104" width="32" height="10" rx="2" transform="rotate(135.595 250.858 53.1104)" fill="#9F69DB"/>
</svg>
