<svg width="182" height="182" viewBox="0 0 182 182" fill="none" xmlns="http://www.w3.org/2000/svg">
<path d="M182 22.5V131.84C182 132.238 181.842 132.62 181.561 132.901L132.901 181.561C132.62 181.842 132.238 182 131.84 182H22.5C21.6716 182 21 181.328 21 180.5V22.5C21 21.6716 21.6716 21 22.5 21H180.5C181.328 21 182 21.6716 182 22.5Z" fill="#636972"/>
<path d="M163 4V112.633C163 113.164 162.789 113.672 162.414 114.047L114.047 162.414C113.672 162.789 113.164 163 112.633 163H4C2.89543 163 2 162.105 2 161V4C2 2.89543 2.89543 2 4 2H161C162.105 2 163 2.89543 163 4Z" fill="#ECE9E3" stroke="#636972" stroke-width="4" stroke-linecap="round" stroke-linejoin="round"/>
<path d="M163 114H110C108.895 114 108 114.895 108 116V166" stroke="#636972" stroke-width="4"/>
<path d="M76.227 91H87.727L90.327 57.2L90.927 41.3H73.027L73.627 57.2L76.227 91ZM81.927 119.4C88.127 119.4 92.527 114.5 92.527 108.3C92.527 102.1 88.127 97.3 81.927 97.3C75.827 97.3 71.427 102.1 71.427 108.3C71.427 114.5 75.827 119.4 81.927 119.4Z" fill="#636972"/>
</svg>
